<svg id="圖層_1" data-name="圖層 1" xmlns="http://www.w3.org/2000/svg" viewBox="0 0 172.46 164.33"><defs><style>.cls-1{fill:#fff;}.cls-2{fill:#f5d6d6;}.cls-3{fill:#a20e0a;}.cls-4{stroke:#000;stroke-miterlimit:10;stroke-width:3px;}</style></defs><title>mushroom</title><polygon class="cls-1" points="24.12 40.51 5.02 63.59 2.67 79.28 2.67 102.2 18.52 91.58 26.39 74.86 25.59 58.06 24.12 40.51"/><polygon class="cls-1" points="148.92 41.65 147.75 58.06 149.88 81.92 158.66 94.12 165.35 103.4 168.76 90.59 167.44 78.79 165.35 65.26 158.25 50.06 148.92 41.65"/><circle class="cls-1" cx="86.9" cy="44.83" r="37.33"/><polygon class="cls-2" points="53.4 110.94 81.67 106.56 102.19 107.44 130.63 116.28 134.03 126.53 138.96 134.26 134.03 139.02 128.39 146.98 119.49 156.32 94.45 159.33 77.07 161.1 58.58 157.52 42.65 149.56 31.62 133.81 31.73 128.14 36.48 122.02 53.4 110.94"/><path class="cls-3" d="M37.11,57.56,39.31,84l-1.1,12.12-12.44,19.3-10.12,3.81,11.83,14.07,17.23,11.87,12.51-14.1,20.5-5.17,16.93-2.31,16.26.39,24,2.75,8.67,6.57,3.39,5.75v8.49l15.86-4,18.87-18.13-3.41-5L162.87,99,160.73,75.1l1.17-16.4.43-8.21L147,36l-22.11-14-24.36-5,4.57,5,17.8,10,4.78,4.78,4,8L135,51.55l5,11.22s-5.71,12-5,12.33S131.27,84,131.27,84L120.52,94.54l-15,7.17-10.48-2.5L79.92,96.53l-9.16-8.75L61.21,75.1V58.44L66.38,42l7.72-5.71L86.4,23.47l5.46-1.41-16.72,2L62.55,31.24,49.46,40l-7,7.17Z" transform="translate(-12.98 -17.05)"/><path d="M176.65,74.8c-28.56-58-59.5-57.83-76.11-57.75H98.75c-6.88,0-20.75,1.35-36.3,10.43-17.07,10-31.3,26.27-42.3,48.45C12.47,91.45,11,106,15.65,119.25c6.71,18.88,23.89,29,29,31.61a26.76,26.76,0,0,0,7.54,15.67c9.14,9.63,25,14.62,47.05,14.84h1.44c21.06,0,36-4.71,44.44-14a25.72,25.72,0,0,0,6.87-16.08c5.6-2,22.25-9,29.8-25.86C188,111.43,186.31,94.39,176.65,74.8Zm-41.7-12a36.2,36.2,0,1,1-36.2-36.2A36.24,36.24,0,0,1,135,62.77ZM24.63,78.16a144.7,144.7,0,0,1,8.91-15.53,70.88,70.88,0,0,1,3.1,18c.52,15.69-5.1,27.68-16.67,35.69C16.25,104.77,17.81,91.93,24.63,78.16Zm122.31,71.6c0,.07.7,7.36-5.57,14.26-7.52,8.28-22.08,12.57-42.13,12.35C79,176.17,64,171.62,55.88,163.21c-6.46-6.71-6.37-13.51-6.36-13.85l.07-1.67-.13-.06a15,15,0,0,1,3.95-9.27c4.94-5.68,16.72-12.44,44.84-12.44h.17c28.16,0,39.88,6.82,44.75,12.52a15.1,15.1,0,0,1,3.84,9.12l-.29.09Zm30.25-26.4C171.12,137,157.9,143.57,151.87,146a20.3,20.3,0,0,0-4.76-10.61c-8-9.56-24.4-14.42-48.69-14.44h-.17c-24.25,0-40.65,4.82-48.76,14.34a20.56,20.56,0,0,0-4.78,9.93c-5.63-3.32-17-11.23-22.89-24C51.2,101.85,39.9,65.25,37.11,57.56,54.2,34.47,73.39,26.28,86.4,23.47a41.18,41.18,0,1,0,18.71-1.41c9.64.17,22.06,1.62,35.57,12.26,6.87,5.41,14,13.19,21.22,24.38-2.37,7.11-13.36,45.05,16.43,61.75C178,121.43,177.62,122.41,177.19,123.36Zm2.49-7.92c-11.16-6.73-16.82-17.74-16.81-32.8A72.17,72.17,0,0,1,165.4,64.4c2.26,3.85,4.52,8,6.77,12.61C179.33,91.54,181.83,104.42,179.68,115.44Z" transform="translate(-12.98 -17.05)"/><ellipse cx="96.02" cy="126.53" rx="6.16" ry="12.49"/><ellipse class="cls-1" cx="94.8" cy="122.02" rx="2.25" ry="5.75"/><ellipse cx="70.9" cy="126.53" rx="6.16" ry="12.49"/><ellipse class="cls-1" cx="71.9" cy="122.02" rx="2.25" ry="5.75"/><path class="cls-4" d="M102.37,45.46V56.52H113.5v6.65H102.37V74.3H95.72V63.17H84.66V56.52H95.72V45.46Z" transform="translate(-12.98 -17.05)"/></svg>