<svg id="圖層_1" data-name="圖層 1" xmlns="http://www.w3.org/2000/svg" viewBox="0 0 198.43 198.43"><defs><style>.cls-1,.cls-5{fill:#b95634;}.cls-2,.cls-4{fill:#2c1b12;}.cls-3{fill:#e89950;}.cls-4,.cls-5{font-size:106.14px;stroke:#2c1b12;stroke-miterlimit:10;font-family:PingFangTC-Semibold-B5pc-H, PingFang TC;}.cls-5{stroke-width:2px;}</style></defs><title>random</title><path class="cls-1" d="M164.18,13.32H34.25A21,21,0,0,0,13.32,34.25V164.18a20.74,20.74,0,0,0,4.23,12.53L178.94,19.45A20.88,20.88,0,0,0,164.18,13.32Z"/><path class="cls-2" d="M178.94,19.45,17.55,176.71a20.88,20.88,0,0,0,16.7,8.39H164.18a21,21,0,0,0,20.92-20.92V34.25A20.86,20.86,0,0,0,178.94,19.45Z"/><rect class="cls-3" x="24.52" y="24.52" width="149.38" height="149.38" rx="18.2"/><rect class="cls-2" x="139.71" y="35.96" width="13.45" height="13.45"/><rect class="cls-2" x="45.26" y="35.96" width="13.45" height="13.45"/><rect class="cls-2" x="139.71" y="144.61" width="13.45" height="13.45"/><rect class="cls-2" x="45.26" y="144.61" width="13.45" height="13.45"/><text class="cls-4" transform="translate(74.24 136.9)">?</text><text class="cls-5" transform="translate(69.94 132.6)">?</text></svg>